# xmcd
#
# Track frame offsets: 
#        150
#        15260
#        30393
#        43986
#        63935
#        80977
#        99922
#        117215
#        136389
#        154501
#        172946
#        190338
#        206673
#
# Disc length: 2989 seconds
#
# Revision: 0
# Processed by: cddbd v1.5.2PL0 Copyright (c) Steve Scherf et al.
# Submitted via: ExactAudioCopy v1.0b3
#
DISCID=a20bab0d
DTITLE=Flans - La Historia [CD 1)
DYEAR=2011
DGENRE=Pop
TTITLE0=Bazar
TTITLE1=No Controles
TTITLE2=Ay Amor
TTITLE3=Me Gusta Ser Sonrisa
TTITLE4=En El Medio De Los Dos
TTITLE5=Cerveza De Bote
TTITLE6=Hoy Por Ti, Mañana Por Mí
TTITLE7=Veinte Millas
TTITLE8=Desde La Trinchera
TTITLE9=Uhm, Ah, Oh
TTITLE10=Ya No Te Perderé
TTITLE11=Esta Noche No
TTITLE12=Bésame
EXTD=
EXTT0=
EXTT1=
EXTT2=
EXTT3=
EXTT4=
EXTT5=
EXTT6=
EXTT7=
EXTT8=
EXTT9=
EXTT10=
EXTT11=
EXTT12=
PLAYORDER=
